<svg xmlns="http://www.w3.org/2000/svg" viewBox="0 0 400 400" width="400" height="400" role="img"><title>Ilustración de encías y dientes con un cepillo dental</title><defs><clipPath id="circulo"><circle cx="200" cy="200" r="185"/></clipPath></defs><g clip-path="url(#circulo)"><circle cx="200" cy="200" r="184" fill="#EEF3FA"/><circle cx="200" cy="200" r="184" fill="none" stroke="#DCE7F5" stroke-width="2"/><rect x="86" y="110" width="74" height="120" rx="30" fill="#FFFFFF" stroke="#1D4F91" stroke-width="6"/><rect x="163" y="110" width="74" height="120" rx="30" fill="#FFFFFF" stroke="#1D4F91" stroke-width="6"/><rect x="240" y="110" width="74" height="120" rx="30" fill="#FFFFFF" stroke="#1D4F91" stroke-width="6"/><path d="M60 200c18-10 30-10 40 4 12-22 52-22 64 0 12-22 52-22 64 0 12-22 52-22 64 0 10-14 22-14 40-4v100c-40 30-90 40-136 40s-96-10-136-40Z" fill="#C9DDF7" stroke="#5B8FD6" stroke-width="5" stroke-linejoin="round"/><g transform="rotate(-35 300 110)"><rect x="230" y="102" width="150" height="16" rx="8" fill="#1D4F91"/><rect x="232" y="78" width="46" height="24" rx="4" fill="#DCE7F5" stroke="#1D4F91" stroke-width="3"/><path d="M240 78v24M250 78v24M260 78v24M270 78v24" stroke="#1D4F91" stroke-width="2"/></g><path d="M110 290L112.8 297.2L120 300L112.8 302.8L110 310L107.2 302.8L100 300L107.2 297.2Z" fill="#5B8FD6"/><path d="M200 323L201.96 328.04L207 330L201.96 331.96L200 337L198.04 331.96L193 330L198.04 328.04Z" fill="#5B8FD6"/></g></svg>